<?xml version="1.0" encoding="UTF-8" standalone="no"?>
<!-- Created with Inkscape (http://www.inkscape.org/) -->

<svg
   width="47.117844mm"
   height="22.918341mm"
   viewBox="0 0 47.117844 22.918341"
   version="1.1"
   id="svg1"
   xml:space="preserve"
   inkscape:version="1.2.2 (b0a8486541, 2022-12-01)"
   sodipodi:docname="logo_paths.svg"
   xmlns:inkscape="http://www.inkscape.org/namespaces/inkscape"
   xmlns:sodipodi="http://sodipodi.sourceforge.net/DTD/sodipodi-0.dtd"
   xmlns:xlink="http://www.w3.org/1999/xlink"
   xmlns="http://www.w3.org/2000/svg"
   xmlns:svg="http://www.w3.org/2000/svg"><sodipodi:namedview
     id="namedview1"
     pagecolor="#ffffff"
     bordercolor="#000000"
     borderopacity="0.25"
     inkscape:showpageshadow="2"
     inkscape:pageopacity="0.0"
     inkscape:pagecheckerboard="0"
     inkscape:deskcolor="#d1d1d1"
     inkscape:document-units="mm"
     inkscape:zoom="6.1581778"
     inkscape:cx="80.299728"
     inkscape:cy="42.057896"
     inkscape:window-width="2560"
     inkscape:window-height="1369"
     inkscape:window-x="0"
     inkscape:window-y="32"
     inkscape:window-maximized="1"
     inkscape:current-layer="layer1"
     showgrid="false" /><defs
     id="defs1"><inkscape:path-effect
       effect="simplify"
       id="path-effect47"
       is_visible="true"
       lpeversion="1.3"
       threshold="100"
       steps="1"
       smooth_angles="360"
       helper_size="0"
       simplify_individual_paths="false"
       simplify_just_coalesce="false" /><inkscape:path-effect
       effect="simplify"
       id="path-effect46"
       is_visible="true"
       lpeversion="1.3"
       threshold="100"
       steps="1"
       smooth_angles="360"
       helper_size="0"
       simplify_individual_paths="false"
       simplify_just_coalesce="false" /><inkscape:path-effect
       effect="simplify"
       id="path-effect45"
       is_visible="true"
       lpeversion="1.3"
       threshold="100"
       steps="1"
       smooth_angles="360"
       helper_size="0"
       simplify_individual_paths="false"
       simplify_just_coalesce="false" /><inkscape:path-effect
       effect="simplify"
       id="path-effect43"
       is_visible="true"
       lpeversion="1.3"
       threshold="100"
       steps="1"
       smooth_angles="360"
       helper_size="0"
       simplify_individual_paths="false"
       simplify_just_coalesce="false" /><inkscape:path-effect
       effect="simplify"
       id="path-effect42"
       is_visible="true"
       lpeversion="1.3"
       threshold="100"
       steps="1"
       smooth_angles="360"
       helper_size="0"
       simplify_individual_paths="false"
       simplify_just_coalesce="false" /><inkscape:path-effect
       effect="simplify"
       id="path-effect41"
       is_visible="true"
       lpeversion="1.3"
       threshold="100"
       steps="1"
       smooth_angles="360"
       helper_size="0"
       simplify_individual_paths="false"
       simplify_just_coalesce="false" /><inkscape:path-effect
       effect="simplify"
       id="path-effect40"
       is_visible="true"
       lpeversion="1.3"
       threshold="100"
       steps="1"
       smooth_angles="360"
       helper_size="0"
       simplify_individual_paths="false"
       simplify_just_coalesce="false" /><inkscape:path-effect
       effect="simplify"
       id="path-effect39"
       is_visible="true"
       lpeversion="1.3"
       threshold="100"
       steps="1"
       smooth_angles="360"
       helper_size="0"
       simplify_individual_paths="false"
       simplify_just_coalesce="false" /><inkscape:path-effect
       effect="simplify"
       id="path-effect38"
       is_visible="true"
       lpeversion="1.3"
       threshold="100"
       steps="1"
       smooth_angles="360"
       helper_size="0"
       simplify_individual_paths="false"
       simplify_just_coalesce="false" /><inkscape:path-effect
       effect="simplify"
       id="path-effect37"
       is_visible="true"
       lpeversion="1.3"
       threshold="100"
       steps="1"
       smooth_angles="360"
       helper_size="0"
       simplify_individual_paths="false"
       simplify_just_coalesce="false" /><inkscape:path-effect
       effect="simplify"
       id="path-effect36"
       is_visible="true"
       lpeversion="1.3"
       threshold="100"
       steps="1"
       smooth_angles="360"
       helper_size="0"
       simplify_individual_paths="false"
       simplify_just_coalesce="false" /><inkscape:path-effect
       effect="simplify"
       id="path-effect35"
       is_visible="true"
       lpeversion="1.3"
       threshold="100"
       steps="1"
       smooth_angles="360"
       helper_size="0"
       simplify_individual_paths="false"
       simplify_just_coalesce="false" /><linearGradient
       id="linearGradient27"
       inkscape:collect="always"><stop
         style="stop-color:#e93421;stop-opacity:1;"
         offset="0"
         id="stop25" /><stop
         style="stop-color:#e8c15c;stop-opacity:1;"
         offset="1"
         id="stop27" /></linearGradient><linearGradient
       id="linearGradient24"
       inkscape:collect="always"><stop
         style="stop-color:#76cf6c;stop-opacity:1;"
         offset="0"
         id="stop22" /><stop
         style="stop-color:#e8c15c;stop-opacity:1;"
         offset="1"
         id="stop24" /></linearGradient><rect
       x="143.54897"
       y="198.11055"
       width="530.67645"
       height="176.67564"
       id="rect1" /><rect
       x="143.54897"
       y="198.11055"
       width="530.67645"
       height="176.67564"
       id="rect6" /><rect
       x="143.54897"
       y="198.11055"
       width="530.67645"
       height="176.67564"
       id="rect8" /><linearGradient
       inkscape:collect="always"
       xlink:href="#linearGradient27"
       id="linearGradient9"
       x1="144.2207"
       y1="204.79172"
       x2="197.25893"
       y2="204.79172"
       gradientUnits="userSpaceOnUse" /><linearGradient
       inkscape:collect="always"
       xlink:href="#linearGradient24"
       id="linearGradient12"
       x1="144.2207"
       y1="204.28317"
       x2="197.11119"
       y2="204.16306"
       gradientUnits="userSpaceOnUse" /></defs><g
     inkscape:label="Layer 1"
     inkscape:groupmode="layer"
     id="layer1"
     transform="translate(-103.96292,-56.938644)"><g
       aria-label="Multilingual"
       transform="matrix(0.71546375,0,0,0.71546375,9.8041377,-85.766579)"
       id="text1"
       style="font-size:10.6667px;font-family:'Open Sans Condensed';-inkscape-font-specification:'Open Sans Condensed, ';white-space:pre;shape-inside:url(#rect1);display:inline;fill:#ee604f;stroke-width:0.370387"><path
         d="m 147.06967,207.81663 -1.50521,-5.61981 h -0.0417 q 0.026,0.34896 0.0417,0.65625 0.0156,0.30729 0.0208,0.56771 0.0104,0.26042 0.0104,0.46875 v 3.9271 h -1.36459 v -7.61461 h 2.01563 l 1.40626,5.21356 h 0.0365 l 1.40625,-5.21356 h 2.00522 v 7.61461 h -1.39584 v -3.93751 q 0,-0.23438 0.005,-0.48959 0.0104,-0.26042 0.0208,-0.55208 0.0156,-0.29688 0.0365,-0.63021 h -0.0417 l -1.51563,5.60939 z"
         style="font-weight:bold;letter-spacing:0.32543px"
         id="path16350" /><path
         d="m 156.85347,201.98328 v 5.83335 h -1.08855 l -0.15625,-0.74479 h -0.0781 q -0.1302,0.28125 -0.3177,0.46875 -0.18751,0.1875 -0.4323,0.28125 -0.23958,0.099 -0.53646,0.099 -0.51562,0 -0.85938,-0.25521 -0.34375,-0.25521 -0.51562,-0.72917 -0.17188,-0.47917 -0.17188,-1.14584 v -3.8073 h 1.38542 v 3.39063 q 0,0.65626 0.13021,0.98438 0.13021,0.32813 0.42188,0.32813 0.34896,0 0.52604,-0.20313 0.17709,-0.20312 0.23959,-0.59375 0.0677,-0.39063 0.0677,-0.94271 v -2.96355 z"
         style="font-weight:bold;letter-spacing:0.32543px"
         id="path16352" /><path
         d="m 159.76224,207.81663 h -1.38542 v -8.10419 h 1.38542 z"
         style="font-weight:bold;letter-spacing:0.32543px"
         id="path16354" /><path
         d="m 163.23351,206.70725 q 0.14583,0 0.30729,-0.0365 0.16667,-0.0417 0.34375,-0.125 v 1.10938 q -0.22916,0.13021 -0.50521,0.19792 -0.27083,0.0677 -0.57812,0.0677 -0.50001,0 -0.81771,-0.19792 -0.31251,-0.20313 -0.45834,-0.60938 -0.14583,-0.41146 -0.14583,-1.03646 v -2.94272 h -0.57292 v -0.74479 l 0.68229,-0.36459 0.32813,-1.27083 h 0.94792 v 1.22917 h 1.04688 v 1.15104 h -1.04688 v 2.89064 q 0,0.34375 0.10416,0.51562 0.10938,0.16667 0.36459,0.16667 z"
         style="font-weight:bold;letter-spacing:0.32543px"
         id="path16356" /><path
         d="m 166.38707,201.98328 v 5.83335 h -1.38542 v -5.83335 z m -0.69271,-2.29688 q 0.39063,0 0.57292,0.20833 0.18229,0.20313 0.18229,0.59375 0,0.38021 -0.1927,0.58334 -0.1875,0.19791 -0.56251,0.19791 -0.36458,0 -0.5625,-0.19791 -0.19791,-0.20313 -0.19791,-0.58334 0,-0.40104 0.18229,-0.59896 0.1875,-0.20312 0.57812,-0.20312 z"
         style="font-weight:bold;letter-spacing:0.32543px"
         id="path16358" /><path
         d="m 169.30626,207.81663 h -1.38542 v -8.10419 h 1.38542 z"
         style="font-weight:bold;letter-spacing:0.32543px"
         id="path16360" /><path
         d="m 172.22545,201.98328 v 5.83335 h -1.38542 v -5.83335 z m -0.69271,-2.29688 q 0.39063,0 0.57292,0.20833 0.18229,0.20313 0.18229,0.59375 0,0.38021 -0.19271,0.58334 -0.1875,0.19791 -0.5625,0.19791 -0.36459,0 -0.5625,-0.19791 -0.19792,-0.20313 -0.19792,-0.58334 0,-0.40104 0.18229,-0.59896 0.1875,-0.20312 0.57813,-0.20312 z"
         style="font-weight:bold;letter-spacing:0.32543px"
         id="path16362" /><path
         d="m 176.37902,201.8739 q 0.73958,0 1.13542,0.53646 0.40104,0.53125 0.40104,1.54688 v 3.85939 h -1.38542 v -3.45834 q 0,-0.61459 -0.125,-0.92709 -0.125,-0.31771 -0.47396,-0.31771 -0.4375,0 -0.61459,0.42708 -0.17187,0.42709 -0.17187,1.46876 v 2.8073 h -1.38542 v -5.83335 h 1.09896 l 0.14583,0.74479 h 0.0885 q 0.1302,-0.27604 0.3177,-0.46354 0.18751,-0.19271 0.4323,-0.29167 0.24479,-0.099 0.53646,-0.099 z"
         style="font-weight:bold;letter-spacing:0.32543px"
         id="path16364" /><path
         d="m 180.92321,210.37914 q -0.96875,0 -1.50001,-0.42709 -0.53125,-0.42708 -0.53125,-1.20833 0,-0.51042 0.29167,-0.87501 0.29688,-0.36458 0.78125,-0.5 -0.24479,-0.10417 -0.40625,-0.32292 -0.16146,-0.22396 -0.16146,-0.51562 0,-0.33334 0.14584,-0.55209 0.15104,-0.21875 0.40625,-0.44792 -0.32813,-0.21354 -0.52605,-0.66666 -0.19791,-0.45313 -0.19791,-0.9948 0,-0.625 0.22396,-1.06771 0.22916,-0.44271 0.66146,-0.67188 0.4375,-0.23437 1.0625,-0.23437 0.19271,0 0.33333,0.0208 0.14584,0.0156 0.25001,0.0469 0.10937,0.0261 0.1875,0.0573 h 1.6875 v 0.83333 l -0.6875,0.15104 q 0.099,0.19271 0.14062,0.40626 0.0417,0.21354 0.0417,0.46875 0,0.9375 -0.50521,1.45313 -0.50521,0.51562 -1.4323,0.51562 -0.28645,0 -0.42187,-0.0469 -0.0833,0.0781 -0.16146,0.1875 -0.0729,0.10937 -0.0729,0.27604 0,0.125 0.0625,0.21354 0.0677,0.0833 0.20313,0.125 0.13542,0.0417 0.33854,0.0417 h 0.96875 q 0.69792,0 1.07292,0.39063 0.37501,0.39062 0.37501,1.19271 0,1.03646 -0.67188,1.59375 -0.66667,0.5573 -1.95834,0.5573 z m 0.099,-1.03646 q 0.42187,0 0.69271,-0.10417 0.27083,-0.10417 0.40104,-0.30729 0.13021,-0.19792 0.13021,-0.48438 0,-0.22917 -0.0677,-0.34896 -0.0677,-0.11458 -0.23437,-0.16146 -0.16146,-0.0417 -0.44792,-0.0417 h -0.76042 q -0.16146,0 -0.28646,0.0781 -0.125,0.0833 -0.19271,0.24479 -0.0677,0.16146 -0.0677,0.41667 0,0.34896 0.22396,0.52604 0.22396,0.1823 0.60938,0.1823 z m 0.16146,-4.45835 q 0.26562,0 0.40625,-0.25521 0.14062,-0.25521 0.14062,-0.75 0,-0.52605 -0.14062,-0.77605 -0.14063,-0.25521 -0.41146,-0.25521 -0.27084,0 -0.41146,0.26042 -0.14063,0.25521 -0.14063,0.76563 0,0.49479 0.13542,0.75521 0.13542,0.25521 0.42188,0.25521 z"
         style="font-weight:bold;letter-spacing:0.32543px"
         id="path16366" /><path
         d="m 188.78512,201.98328 v 5.83335 h -1.08854 l -0.15625,-0.74479 h -0.0781 q -0.13021,0.28125 -0.31771,0.46875 -0.1875,0.1875 -0.43229,0.28125 -0.23958,0.099 -0.53646,0.099 -0.51563,0 -0.85938,-0.25521 -0.34375,-0.25521 -0.51562,-0.72917 -0.17188,-0.47917 -0.17188,-1.14584 v -3.8073 h 1.38542 v 3.39063 q 0,0.65626 0.13021,0.98438 0.13021,0.32813 0.42188,0.32813 0.34896,0 0.52604,-0.20313 0.17708,-0.20312 0.23958,-0.59375 0.0677,-0.39063 0.0677,-0.94271 v -2.96355 z"
         style="font-weight:bold;letter-spacing:0.32543px"
         id="path16368" /><path
         d="m 192.33452,201.8739 q 0.84896,0 1.29167,0.52605 0.44792,0.52083 0.44792,1.55729 v 3.85939 h -1.01563 l -0.22396,-0.78125 h -0.0312 q -0.17708,0.29687 -0.38021,0.49479 -0.19791,0.19792 -0.45312,0.29167 -0.25521,0.099 -0.59896,0.099 -0.48438,0 -0.78646,-0.26042 -0.29688,-0.26042 -0.4323,-0.67709 -0.13541,-0.41666 -0.13541,-0.88542 0,-0.91146 0.50521,-1.38021 0.50521,-0.46875 1.4375,-0.50521 l 0.72396,-0.0312 v -0.23437 q 0,-0.47917 -0.15104,-0.71355 -0.14583,-0.23958 -0.48438,-0.23958 -0.25,0 -0.54687,0.099 -0.29688,0.099 -0.65105,0.30729 l -0.38541,-1.03646 q 0.39583,-0.23959 0.86979,-0.36459 0.47396,-0.125 1,-0.125 z m 0.34896,3.23439 -0.39062,0.0208 q -0.44271,0.0208 -0.66146,0.25 -0.21355,0.22396 -0.21355,0.65625 0,0.39063 0.13021,0.58334 0.13542,0.19271 0.39063,0.19271 0.32812,0 0.53646,-0.31771 0.20833,-0.31771 0.20833,-0.85417 z"
         style="font-weight:bold;letter-spacing:0.32543px"
         id="path16370" /><path
         d="m 196.96726,207.81663 h -1.38542 v -8.10419 h 1.38542 z"
         style="font-weight:bold;letter-spacing:0.32543px"
         id="path16372" /></g><g
       aria-label="Multicultural"
       transform="matrix(0.71546375,0,0,0.71546375,9.8041377,-77.299925)"
       id="text6"
       style="font-size:10.6667px;font-family:Serif;-inkscape-font-specification:Serif;white-space:pre;shape-inside:url(#rect6);display:inline;fill:#70c867;stroke-width:0.370387"><path
         d="m 147.06967,207.81669 -1.50521,-5.61981 h -0.0417 q 0.026,0.34896 0.0417,0.65626 0.0156,0.30729 0.0208,0.56771 0.0104,0.26041 0.0104,0.46875 v 3.92709 h -1.36459 v -7.6146 h 2.01563 l 1.40626,5.21355 h 0.0365 l 1.40625,-5.21355 h 2.00522 v 7.6146 h -1.39584 v -3.93751 q 0,-0.23437 0.005,-0.48958 0.0104,-0.26042 0.0208,-0.55209 0.0156,-0.29687 0.0365,-0.63021 h -0.0417 l -1.51563,5.60939 z"
         style="font-weight:bold;font-stretch:condensed;font-family:'Open Sans Condensed';-inkscape-font-specification:'Open Sans Condensed,  Bold Condensed'"
         id="path16323" /><path
         d="m 156.52804,201.98334 v 5.83335 h -1.08855 l -0.15625,-0.74479 h -0.0781 q -0.1302,0.28125 -0.3177,0.46875 -0.18751,0.1875 -0.4323,0.28125 -0.23958,0.099 -0.53646,0.099 -0.51562,0 -0.85938,-0.25521 -0.34375,-0.25521 -0.51562,-0.72917 -0.17188,-0.47917 -0.17188,-1.14583 v -3.80731 h 1.38542 v 3.39064 q 0,0.65625 0.13021,0.98438 0.13021,0.32812 0.42188,0.32812 0.34896,0 0.52604,-0.20312 0.17709,-0.20313 0.23959,-0.59376 0.0677,-0.39062 0.0677,-0.94271 v -2.96355 z"
         style="font-weight:bold;font-stretch:condensed;font-family:'Open Sans Condensed';-inkscape-font-specification:'Open Sans Condensed,  Bold Condensed'"
         id="path16325" /><path
         d="m 159.11138,207.81669 h -1.38542 v -8.10419 h 1.38542 z"
         style="font-weight:bold;font-stretch:condensed;font-family:'Open Sans Condensed';-inkscape-font-specification:'Open Sans Condensed,  Bold Condensed'"
         id="path16327" /><path
         d="m 162.25722,206.70732 q 0.14583,0 0.30729,-0.0365 0.16667,-0.0417 0.34375,-0.125 v 1.10938 q -0.22916,0.1302 -0.50521,0.19791 -0.27083,0.0677 -0.57812,0.0677 -0.5,0 -0.81771,-0.19792 -0.31251,-0.20312 -0.45834,-0.60937 -0.14583,-0.41146 -0.14583,-1.03646 v -2.94272 h -0.57292 v -0.7448 l 0.68229,-0.36458 0.32813,-1.27084 h 0.94792 v 1.22917 h 1.04688 v 1.15105 h -1.04688 v 2.89063 q 0,0.34375 0.10417,0.51563 0.10937,0.16667 0.36458,0.16667 z"
         style="font-weight:bold;font-stretch:condensed;font-family:'Open Sans Condensed';-inkscape-font-specification:'Open Sans Condensed,  Bold Condensed'"
         id="path16329" /><path
         d="m 165.08536,201.98334 v 5.83335 h -1.38543 v -5.83335 z m -0.69272,-2.29688 q 0.39063,0 0.57292,0.20833 0.1823,0.20313 0.1823,0.59376 0,0.38021 -0.19271,0.58333 -0.1875,0.19792 -0.56251,0.19792 -0.36458,0 -0.5625,-0.19792 -0.19791,-0.20312 -0.19791,-0.58333 0,-0.40105 0.18229,-0.59896 0.1875,-0.20313 0.57812,-0.20313 z"
         style="font-weight:bold;font-stretch:condensed;font-family:'Open Sans Condensed';-inkscape-font-specification:'Open Sans Condensed,  Bold Condensed'"
         id="path16331" /><path
         d="m 168.26766,207.92086 q -0.72917,0 -1.21876,-0.32292 -0.48437,-0.32812 -0.72917,-0.98958 -0.23958,-0.66667 -0.23958,-1.6823 0,-0.88542 0.23437,-1.57292 0.23438,-0.69271 0.72397,-1.08334 0.48958,-0.39583 1.25,-0.39583 0.43229,0 0.77604,0.099 0.34896,0.0937 0.65105,0.28645 l -0.38542,1.10938 q -0.23959,-0.14583 -0.47396,-0.21354 -0.22917,-0.0729 -0.46354,-0.0729 -0.28646,0 -0.48959,0.21355 -0.20312,0.20833 -0.3125,0.61979 -0.10417,0.40625 -0.10417,1.01042 0,0.59896 0.10417,1 0.10938,0.40105 0.3125,0.60417 0.20834,0.19792 0.51042,0.19792 0.29688,0 0.59896,-0.10938 0.30208,-0.10937 0.58854,-0.31771 v 1.18751 q -0.28125,0.22396 -0.63021,0.32812 -0.34375,0.10417 -0.70312,0.10417 z"
         style="font-weight:bold;font-stretch:condensed;font-family:'Open Sans Condensed';-inkscape-font-specification:'Open Sans Condensed,  Bold Condensed'"
         id="path16333" /><path
         d="m 174.69476,201.98334 v 5.83335 h -1.08855 l -0.15625,-0.74479 h -0.0781 q -0.13021,0.28125 -0.31771,0.46875 -0.1875,0.1875 -0.43229,0.28125 -0.23959,0.099 -0.53646,0.099 -0.51563,0 -0.85938,-0.25521 -0.34375,-0.25521 -0.51563,-0.72917 -0.17187,-0.47917 -0.17187,-1.14583 v -3.80731 h 1.38542 v 3.39064 q 0,0.65625 0.13021,0.98438 0.13021,0.32812 0.42187,0.32812 0.34896,0 0.52605,-0.20312 0.17708,-0.20313 0.23958,-0.59376 0.0677,-0.39062 0.0677,-0.94271 v -2.96355 z"
         style="font-weight:bold;font-stretch:condensed;font-family:'Open Sans Condensed';-inkscape-font-specification:'Open Sans Condensed,  Bold Condensed'"
         id="path16335" /><path
         d="m 177.2781,207.81669 h -1.38542 v -8.10419 h 1.38542 z"
         style="font-weight:bold;font-stretch:condensed;font-family:'Open Sans Condensed';-inkscape-font-specification:'Open Sans Condensed,  Bold Condensed'"
         id="path16337" /><path
         d="m 180.42394,206.70732 q 0.14584,0 0.3073,-0.0365 0.16666,-0.0417 0.34375,-0.125 v 1.10938 q -0.22917,0.1302 -0.50521,0.19791 -0.27084,0.0677 -0.57813,0.0677 -0.5,0 -0.81771,-0.19792 -0.3125,-0.20312 -0.45834,-0.60937 -0.14583,-0.41146 -0.14583,-1.03646 v -2.94272 h -0.57292 v -0.7448 l 0.6823,-0.36458 0.32812,-1.27084 h 0.94792 v 1.22917 h 1.04688 v 1.15105 h -1.04688 v 2.89063 q 0,0.34375 0.10417,0.51563 0.10937,0.16667 0.36458,0.16667 z"
         style="font-weight:bold;font-stretch:condensed;font-family:'Open Sans Condensed';-inkscape-font-specification:'Open Sans Condensed,  Bold Condensed'"
         id="path16339" /><path
         d="m 186.00209,201.98334 v 5.83335 h -1.08855 l -0.15625,-0.74479 h -0.0781 q -0.1302,0.28125 -0.31771,0.46875 -0.1875,0.1875 -0.43229,0.28125 -0.23958,0.099 -0.53646,0.099 -0.51562,0 -0.85938,-0.25521 -0.34375,-0.25521 -0.51562,-0.72917 -0.17188,-0.47917 -0.17188,-1.14583 v -3.80731 h 1.38542 v 3.39064 q 0,0.65625 0.13021,0.98438 0.13021,0.32812 0.42188,0.32812 0.34896,0 0.52604,-0.20312 0.17709,-0.20313 0.23959,-0.59376 0.0677,-0.39062 0.0677,-0.94271 v -2.96355 z"
         style="font-weight:bold;font-stretch:condensed;font-family:'Open Sans Condensed';-inkscape-font-specification:'Open Sans Condensed,  Bold Condensed'"
         id="path16341" /><path
         d="m 189.73647,201.87397 q 0.11459,0 0.22396,0.0208 0.10938,0.0156 0.25521,0.0573 l -0.125,1.47917 q -0.10417,-0.0417 -0.22917,-0.0573 -0.11979,-0.0156 -0.26562,-0.0156 -0.23959,0 -0.42709,0.10416 -0.1875,0.10417 -0.31771,0.30209 -0.125,0.19271 -0.1927,0.46875 -0.0625,0.27083 -0.0625,0.60938 v 2.97396 h -1.38543 v -5.83335 h 1.06772 l 0.19791,0.95834 h 0.0677 q 0.11459,-0.27604 0.28646,-0.52084 0.17188,-0.24479 0.40104,-0.39583 0.22917,-0.15104 0.50521,-0.15104 z"
         style="font-weight:bold;font-stretch:condensed;font-family:'Open Sans Condensed';-inkscape-font-specification:'Open Sans Condensed,  Bold Condensed'"
         id="path16343" /><path
         d="m 192.92919,201.87397 q 0.84896,0 1.29167,0.52604 0.44792,0.52084 0.44792,1.5573 v 3.85938 h -1.01563 l -0.22396,-0.78125 h -0.0312 q -0.17708,0.29688 -0.38021,0.49479 -0.19791,0.19792 -0.45312,0.29167 -0.25521,0.099 -0.59896,0.099 -0.48438,0 -0.78646,-0.26042 -0.29688,-0.26041 -0.4323,-0.67708 -0.13541,-0.41667 -0.13541,-0.88542 0,-0.91146 0.50521,-1.38021 0.50521,-0.46876 1.4375,-0.50521 l 0.72396,-0.0312 v -0.23438 q 0,-0.47917 -0.15104,-0.71354 -0.14583,-0.23959 -0.48438,-0.23959 -0.25,0 -0.54687,0.099 -0.29688,0.099 -0.65105,0.30729 l -0.38542,-1.03646 q 0.39584,-0.23958 0.8698,-0.36458 0.47396,-0.125 1,-0.125 z m 0.34896,3.23438 -0.39062,0.0208 q -0.44271,0.0208 -0.66146,0.25 -0.21355,0.22396 -0.21355,0.65625 0,0.39062 0.13021,0.58333 0.13542,0.19271 0.39063,0.19271 0.32812,0 0.53646,-0.31771 0.20833,-0.31771 0.20833,-0.85417 z"
         style="font-weight:bold;font-stretch:condensed;font-family:'Open Sans Condensed';-inkscape-font-specification:'Open Sans Condensed,  Bold Condensed'"
         id="path16345" /><path
         d="m 197.2365,207.81669 h -1.38542 v -8.10419 h 1.38542 z"
         style="font-weight:bold;font-stretch:condensed;font-family:'Open Sans Condensed';-inkscape-font-specification:'Open Sans Condensed,  Bold Condensed'"
         id="path16347" /></g><g
       aria-label="Evaluation"
       transform="matrix(0.89081011,0,0,0.71546375,-15.45155,-69.362408)"
       id="text8"
       style="font-size:10.6667px;font-family:Serif;-inkscape-font-specification:Serif;letter-spacing:0px;white-space:pre;shape-inside:url(#rect8);display:inline;stroke-width:0.331938"><path
         d="m 147.65301,207.81669 h -3.42189 v -7.6146 h 3.42189 v 1.24479 h -1.95834 v 1.79167 h 1.82292 v 1.25001 h -1.82292 v 2.0573 h 1.95834 z"
         style="font-weight:bold;font-stretch:condensed;font-family:'Open Sans Condensed';-inkscape-font-specification:'Open Sans Condensed,  Bold Condensed'"
         id="path16302" /><path
         d="m 149.71031,207.81669 -1.57813,-5.83335 h 1.44271 l 0.66146,3.08335 q 0.0729,0.30208 0.11979,0.60937 0.0469,0.30729 0.0833,0.64584 h 0.0417 q 0.0104,-0.23959 0.0573,-0.53125 0.0521,-0.29688 0.125,-0.64063 l 0.70313,-3.16668 h 1.43751 l -1.58855,5.83335 z"
         style="font-weight:bold;font-stretch:condensed;font-family:'Open Sans Condensed';-inkscape-font-specification:'Open Sans Condensed,  Bold Condensed'"
         id="path16304" /><path
         d="m 155.46032,201.87397 q 0.84897,0 1.29167,0.52604 0.44792,0.52084 0.44792,1.5573 v 3.85938 h -1.01563 l -0.22395,-0.78125 h -0.0312 q -0.17709,0.29688 -0.38021,0.49479 -0.19792,0.19792 -0.45313,0.29167 -0.25521,0.099 -0.59896,0.099 -0.48438,0 -0.78646,-0.26042 -0.29688,-0.26041 -0.43229,-0.67708 -0.13542,-0.41667 -0.13542,-0.88542 0,-0.91146 0.50521,-1.38021 0.50521,-0.46876 1.4375,-0.50521 l 0.72396,-0.0312 v -0.23438 q 0,-0.47917 -0.15104,-0.71354 -0.14583,-0.23959 -0.48438,-0.23959 -0.25,0 -0.54687,0.099 -0.29688,0.099 -0.65105,0.30729 l -0.38541,-1.03646 q 0.39583,-0.23958 0.86979,-0.36458 0.47396,-0.125 1,-0.125 z m 0.34896,3.23438 -0.39062,0.0208 q -0.44271,0.0208 -0.66146,0.25 -0.21355,0.22396 -0.21355,0.65625 0,0.39062 0.13021,0.58333 0.13542,0.19271 0.39063,0.19271 0.32813,0 0.53646,-0.31771 0.20833,-0.31771 0.20833,-0.85417 z"
         style="font-weight:bold;font-stretch:condensed;font-family:'Open Sans Condensed';-inkscape-font-specification:'Open Sans Condensed,  Bold Condensed'"
         id="path16306" /><path
         d="m 159.76763,207.81669 h -1.38542 v -8.10419 h 1.38542 z"
         style="font-weight:bold;font-stretch:condensed;font-family:'Open Sans Condensed';-inkscape-font-specification:'Open Sans Condensed,  Bold Condensed'"
         id="path16308" /><path
         d="m 165.1114,201.98334 v 5.83335 h -1.08855 l -0.15625,-0.74479 h -0.0781 q -0.1302,0.28125 -0.3177,0.46875 -0.18751,0.1875 -0.4323,0.28125 -0.23958,0.099 -0.53646,0.099 -0.51562,0 -0.85938,-0.25521 -0.34375,-0.25521 -0.51562,-0.72917 -0.17188,-0.47917 -0.17188,-1.14583 v -3.80731 h 1.38542 v 3.39064 q 0,0.65625 0.13021,0.98438 0.13021,0.32812 0.42188,0.32812 0.34896,0 0.52604,-0.20312 0.17709,-0.20313 0.23959,-0.59376 0.0677,-0.39062 0.0677,-0.94271 v -2.96355 z"
         style="font-weight:bold;font-stretch:condensed;font-family:'Open Sans Condensed';-inkscape-font-specification:'Open Sans Condensed,  Bold Condensed'"
         id="path16310" /><path
         d="m 168.33536,201.87397 q 0.84897,0 1.29167,0.52604 0.44792,0.52084 0.44792,1.5573 v 3.85938 h -1.01563 l -0.22395,-0.78125 h -0.0312 q -0.17709,0.29688 -0.38021,0.49479 -0.19792,0.19792 -0.45313,0.29167 -0.25521,0.099 -0.59896,0.099 -0.48438,0 -0.78646,-0.26042 -0.29688,-0.26041 -0.43229,-0.67708 -0.13542,-0.41667 -0.13542,-0.88542 0,-0.91146 0.50521,-1.38021 0.50521,-0.46876 1.4375,-0.50521 l 0.72396,-0.0312 v -0.23438 q 0,-0.47917 -0.15104,-0.71354 -0.14583,-0.23959 -0.48438,-0.23959 -0.25,0 -0.54687,0.099 -0.29688,0.099 -0.65105,0.30729 l -0.38541,-1.03646 q 0.39583,-0.23958 0.86979,-0.36458 0.47396,-0.125 1,-0.125 z m 0.34896,3.23438 -0.39062,0.0208 q -0.44271,0.0208 -0.66146,0.25 -0.21355,0.22396 -0.21355,0.65625 0,0.39062 0.13021,0.58333 0.13542,0.19271 0.39063,0.19271 0.32813,0 0.53646,-0.31771 0.20833,-0.31771 0.20833,-0.85417 z"
         style="font-weight:bold;font-stretch:condensed;font-family:'Open Sans Condensed';-inkscape-font-specification:'Open Sans Condensed,  Bold Condensed'"
         id="path16312" /><path
         d="m 173.20517,206.70732 q 0.14584,0 0.30729,-0.0365 0.16667,-0.0417 0.34376,-0.125 v 1.10938 q -0.22917,0.1302 -0.50521,0.19791 -0.27084,0.0677 -0.57813,0.0677 -0.5,0 -0.81771,-0.19792 -0.3125,-0.20312 -0.45834,-0.60937 -0.14583,-0.41146 -0.14583,-1.03646 v -2.94272 h -0.57292 v -0.7448 l 0.68229,-0.36458 0.32813,-1.27084 h 0.94792 v 1.22917 h 1.04688 v 1.15105 h -1.04688 v 2.89063 q 0,0.34375 0.10417,0.51563 0.10937,0.16667 0.36458,0.16667 z"
         style="font-weight:bold;font-stretch:condensed;font-family:'Open Sans Condensed';-inkscape-font-specification:'Open Sans Condensed,  Bold Condensed'"
         id="path16314" /><path
         d="m 176.03331,201.98334 v 5.83335 h -1.38543 v -5.83335 z m -0.69272,-2.29688 q 0.39063,0 0.57292,0.20833 0.1823,0.20313 0.1823,0.59376 0,0.38021 -0.19271,0.58333 -0.1875,0.19792 -0.56251,0.19792 -0.36458,0 -0.5625,-0.19792 -0.19791,-0.20312 -0.19791,-0.58333 0,-0.40105 0.18229,-0.59896 0.1875,-0.20313 0.57812,-0.20313 z"
         style="font-weight:bold;font-stretch:condensed;font-family:'Open Sans Condensed';-inkscape-font-specification:'Open Sans Condensed,  Bold Condensed'"
         id="path16316" /><path
         d="m 181.46561,204.88439 q 0,0.60938 -0.125,1.15626 -0.11979,0.54687 -0.38542,0.96875 -0.26041,0.42188 -0.6875,0.66667 -0.42187,0.24479 -1.03125,0.24479 -0.56771,0 -0.98438,-0.23958 -0.41667,-0.23959 -0.6875,-0.65626 -0.27084,-0.42187 -0.40625,-0.96875 -0.13021,-0.55208 -0.13021,-1.17188 0,-0.88021 0.22917,-1.55729 0.23437,-0.6823 0.72396,-1.06772 0.49479,-0.38541 1.27604,-0.38541 0.67188,0 1.16667,0.34896 0.5,0.34896 0.77084,1.02083 0.27083,0.66667 0.27083,1.64063 z m -3.03126,0.0208 q 0,0.60417 0.0833,1.01562 0.0885,0.41146 0.26562,0.6198 0.1823,0.20833 0.46355,0.20833 0.28646,0 0.45833,-0.20312 0.17708,-0.20834 0.25521,-0.62501 0.0833,-0.41666 0.0833,-1.03646 0,-0.61458 -0.0833,-1.02083 -0.0781,-0.40625 -0.25521,-0.60938 -0.17187,-0.20313 -0.45833,-0.20313 -0.42709,0 -0.6198,0.45313 -0.19271,0.45313 -0.19271,1.40105 z"
         style="font-weight:bold;font-stretch:condensed;font-family:'Open Sans Condensed';-inkscape-font-specification:'Open Sans Condensed,  Bold Condensed'"
         id="path16318" /><path
         d="m 185.06459,201.87397 q 0.73958,0 1.13542,0.53646 0.40104,0.53125 0.40104,1.54688 v 3.85938 h -1.38542 v -3.45834 q 0,-0.61459 -0.125,-0.92709 -0.125,-0.31771 -0.47396,-0.31771 -0.4375,0 -0.61459,0.42709 -0.17187,0.42708 -0.17187,1.46875 v 2.8073 h -1.38542 v -5.83335 h 1.09896 l 0.14583,0.7448 h 0.0885 q 0.13021,-0.27605 0.31771,-0.46355 0.1875,-0.19271 0.4323,-0.29166 0.24479,-0.099 0.53646,-0.099 z"
         style="font-weight:bold;font-stretch:condensed;font-family:'Open Sans Condensed';-inkscape-font-specification:'Open Sans Condensed,  Bold Condensed'"
         id="path16320" /></g><path
       style="fill:#56a7ad;fill-opacity:1;stroke-width:0.264999"
       d="m 107.51776,65.223498 c -1.40959,-0.124745 -2.45476,0.977065 -3.0049,2.154197 -0.40798,0.872929 -0.63452,1.938379 0.17512,2.910371 0.96172,1.154566 2.55018,2.092639 4.0163,1.462524 1.53682,-0.660496 2.35241,-2.61217 1.96716,-4.179971 -0.3441,-1.400354 -1.68543,-2.481323 -3.15368,-2.347121 z"
       id="path27"
       sodipodi:nodetypes="scccccccs" /><path
       style="fill:#e8c15c;fill-opacity:1;stroke:none;stroke-width:0.0999996;stroke-linecap:round;stroke-dasharray:none;stroke-opacity:1"
       d="m 106.80363,73.185626 c -2.5479,0.356629 -3.74791,4.307301 -1.35431,6.01901 1.44486,1.033242 3.42221,0.781528 4.528,-0.349826 0.58844,-0.602039 0.65519,-1.467265 0.87118,-2.489345 0.83668,-2.467509 -1.49696,-3.536468 -4.04487,-3.179839 z"
       id="path33"
       sodipodi:nodetypes="zcscz" /><path
       style="fill:none;fill-opacity:1;stroke:#000000;stroke-width:3.17795;stroke-linecap:round;stroke-dasharray:none;stroke-opacity:1"
       d="m 43.480757,103.25663 c 2.876757,1.39944 6.386511,2.60146 9.537496,1.57687"
       id="path34"
       transform="matrix(0.18796472,0,0,0.18964109,96.854389,55.750359)"
       sodipodi:nodetypes="ccc" /><path
       style="fill:#000000;fill-opacity:1;stroke:none;stroke-width:3.17795;stroke-linecap:round;stroke-dasharray:none;stroke-opacity:1"
       d="m 46.208775,105.08623 c -2.083861,1.24791 -1.08932,3.94948 0.771706,5.32808 2.649264,1.96252 4.780883,-1.40857 4.219086,-4.05492 -0.457288,-2.15406 -3.497179,-2.26836 -4.990792,-1.27316 z"
       id="path35"
       transform="matrix(0.18796472,0,0,0.18964109,96.854389,55.76223)" /><path
       style="fill:#56a7ad;fill-opacity:1;stroke:#000000;stroke-width:4.72869;stroke-linecap:round;stroke-dasharray:none;stroke-opacity:1"
       d="M 76.262073,92.073028 C 54.33197,95.814401 69.474396,133.13874 88.343957,114.84555 98.373866,105.122 90.780958,88.486778 76.262073,92.073028 Z"
       id="path38"
       transform="matrix(0.12688178,0,0,0.12688814,99.828101,62.640054)" /><path
       style="fill:#000000;fill-opacity:1;stroke:none;stroke-width:6.40484;stroke-linecap:round;stroke-dasharray:none;stroke-opacity:1"
       d="m 74.386289,109.49245 c 1.258698,2.55965 5.942469,2.84331 6.80456,-0.11045 0.779434,-2.67056 -1.242054,-6.36918 -4.339113,-5.82008 -2.539454,0.45023 -3.711001,3.82222 -2.465447,5.93053 z"
       id="path36"
       sodipodi:nodetypes="cccc"
       transform="matrix(0.21858467,0,0,0.21858467,92.690528,52.803441)" /><path
       style="fill:none;fill-opacity:1;stroke:#000000;stroke-width:4.343;stroke-linecap:round;stroke-dasharray:none;stroke-opacity:1"
       d="m 55.369845,120.77048 c 4.392002,1.52356 9.365875,1.85672 13.790968,0.31115"
       id="path37"
       sodipodi:nodetypes="ccc"
       transform="matrix(0.13815316,0,0,0.13815316,98.932945,61.4498)" /><path
       style="fill:#0089a3;fill-opacity:1;stroke:#000000;stroke-width:4.343;stroke-linecap:round;stroke-dasharray:none;stroke-opacity:1"
       d="m 87.402846,114.45756 c 3.208913,4.11387 6.914547,7.78071 10.518555,11.53942"
       id="path39"
       sodipodi:nodetypes="cc"
       transform="matrix(0.13490747,0.02977035,-0.02977035,0.13490747,102.4015,59.483602)" /><path
       style="fill:#7ecd75;fill-opacity:1;stroke:none;stroke-width:0.512778;stroke-linecap:round;stroke-dasharray:none;stroke-opacity:1"
       d="m 108.29297,68.345731 c -0.17346,-0.09242 -0.45003,-0.03718 -0.5196,0.15455 -0.0618,0.170438 0.10995,0.278049 0.24922,0.332253 0.19292,0.07508 0.45448,0.137403 0.5093,0.361908 0.0825,0.337793 0.17024,0.671541 0.28229,1.0063 0.0486,0.145144 0.0576,0.352971 0.20736,0.416458 0.14756,0.06253 0.24993,-0.10642 0.34922,-0.184859 0.18779,-0.148351 0.4251,-0.341665 0.38483,-0.603734 -0.0506,-0.329282 -0.18131,-0.612882 -0.33741,-0.921469 -0.11598,-0.229275 0.0356,-0.598796 -0.20279,-0.729323 -0.14291,-0.07825 -0.29889,-0.146101 -0.45688,-0.194665 -0.1713,-0.05266 -0.3323,0.06114 -0.43132,0.209729 -0.0278,0.04172 -0.0513,0.145322 -0.12047,0.120626"
       id="path40"
       transform="matrix(1.1700998,0,0,1.1700998,-18.625989,-11.377066)" /><path
       style="fill:#7ecd75;fill-opacity:1;stroke:none;stroke-width:0.600001;stroke-linecap:round;stroke-dasharray:none;stroke-opacity:1"
       d="m 105.04914,66.401586 c 0.20851,0.109945 0.48562,0.213513 0.68505,0.100982 0.2929,-0.165268 0.30769,0.217256 0.49922,0.344288 0.23284,0.154431 0.0963,0.431969 -0.007,0.616115 -0.12107,0.216405 0.1136,0.353108 0.25196,0.467578 0.15963,0.132079 0.29429,0.36116 0.18591,0.554504 -0.12533,0.223579 -0.47662,-0.06147 -0.61972,0.107828 -0.14295,0.169113 -0.6441,0.07266 -0.47095,0.40867 0.0934,0.181146 0.10785,0.380241 0.11968,0.590154 0.0136,0.242334 0.0787,0.474907 0.15984,0.704848 0.0984,0.278935 -0.30321,0.16546 -0.42539,0.08763 -0.21904,-0.139535 -0.35444,-0.375608 -0.43901,-0.627405 -0.068,-0.202463 -0.24881,-0.380599 -0.44962,-0.435919 -0.21117,-0.05817 -0.20567,-0.278033 -0.24309,-0.459187 -0.0811,-0.392512 0.14349,-0.76067 0.18634,-1.1442 0.0237,-0.212417 0.0925,-0.412743 0.15756,-0.61492 0.0699,-0.217141 0.0872,-0.480565 0.25856,-0.636521 0.0415,-0.03777 0.0984,-0.0489 0.15035,-0.06444 z"
       id="path41"
       transform="translate(0,0.52916667)" /><path
       style="fill:#7ecd75;fill-opacity:1;stroke:none;stroke-width:0.600001;stroke-linecap:round;stroke-dasharray:none;stroke-opacity:1"
       d="m 107.75591,65.832305 c -0.0634,0.290193 -0.36984,0.426889 -0.47969,0.694698 -0.0735,0.179076 -0.29938,0.38731 -0.19701,0.551274 0.10153,0.162607 0.31557,0.174871 0.49104,0.178002 0.34982,0.0062 0.69845,-0.0048 1.04528,-0.08937 0.19921,-0.04856 0.39865,-0.170826 0.60092,-0.135819 0.23468,0.04062 0.38954,0.268585 0.64327,0.271274 0.16757,0.0018 0.35253,0.02351 0.50253,-0.05701 0.10853,-0.05826 0.0424,-0.141463 0.12514,-0.249569 0.14182,-0.185316 -0.0343,-0.355414 -0.11918,-0.515509 -0.08,-0.150966 -0.0644,-0.314233 -0.20407,-0.449083 -0.18019,-0.173945 -0.36834,-0.341935 -0.50608,-0.553675 -0.10815,-0.16626 -0.3211,-0.187282 -0.49424,-0.1755 -0.28519,0.01941 -0.56155,0.121517 -0.79805,0.272443 -0.18789,0.119905 -0.383,0.235232 -0.60986,0.257849 z"
       id="path42"
       transform="translate(0,0.52916667)" /><path
       style="fill:#56a7ad;fill-opacity:1;stroke-width:0.264999"
       d="m 110.6926,60.425938 c 0.12474,1.40959 -0.97707,2.45476 -2.1542,3.0049 -0.87293,0.40798 -1.93838,0.63452 -2.91037,-0.17512 -1.15456,-0.96172 -2.09264,-2.55018 -1.46252,-4.0163 0.66049,-1.53682 2.61217,-2.35241 4.17997,-1.96716 1.40035,0.3441 2.48132,1.68543 2.34712,3.15368 z"
       id="path43"
       sodipodi:nodetypes="scccccccs" /><path
       style="fill:#ee604f;fill-opacity:1;stroke:none;stroke-width:0.537132;stroke-linecap:round;stroke-dasharray:none;stroke-opacity:1"
       d="m 105.05988,60.075056 c -0.11562,0.08144 -0.12282,0.234888 -0.13853,0.361552 -0.0347,0.279978 -0.0707,0.567109 -0.0241,0.847328 0.0297,0.17831 0.28276,0.094 0.37104,0.204912 0.0803,0.100944 0.0462,0.250004 0.0605,0.371966 0.009,0.07258 0.01,0.303465 0.0331,0.251145 0.0951,-0.211235 0.18453,-0.452604 0.39623,-0.576104 0.12703,-0.0741 0.27557,-0.08434 0.41804,-0.06069 0.17712,0.0294 0.3615,-0.05934 0.53131,0.01652 0.16294,0.07279 0.23561,-0.113272 0.26245,-0.24281 0.0484,-0.233683 0.13875,-0.467992 0.11179,-0.706786 -0.0134,-0.119004 0.0834,-0.369078 -0.0401,-0.37907 -0.35113,-0.0284 -0.70411,-0.01563 -1.05614,-0.01264 -0.25725,0.0022 -0.5123,-0.02675 -0.76846,-0.04537 -0.0533,-0.0039 -0.10636,-0.01292 -0.15708,-0.02994 z"
       id="path44"
       transform="matrix(1.0288893,0,0,1.212752,-3.337062,-12.829927)" /><path
       style="fill:#ee604f;fill-opacity:1;stroke:none;stroke-width:0.491452;stroke-linecap:round;stroke-dasharray:none;stroke-opacity:1"
       d="m 106.07339,57.933606 c 0.24337,0.07988 0.50092,0.04523 0.75192,0.04557 0.32369,4.42e-4 0.64923,0.0434 0.97105,0.0095 0.10595,-0.01116 0.25122,-0.06911 0.30984,0.06781 0.11918,0.278363 0.0616,0.596563 0.15461,0.879675 0.0416,0.126571 0.24086,0.05527 0.34595,0.0946 0.0829,0.03104 0.32112,0.05264 0.28118,0.09935 -0.10373,0.1213 -0.26975,0.08772 -0.39679,0.171767 -0.11795,0.07804 -0.22186,0.192298 -0.37632,0.197427 -0.25211,0.0084 -0.5031,-0.02622 -0.75462,-0.04028 -0.25153,-0.01407 -0.50533,0.01646 -0.75495,-0.02833 -0.12631,-0.02267 -0.27779,0.06885 -0.37999,-0.01604 -0.11678,-0.09699 -0.0705,-0.267846 -0.0942,-0.399883 -0.0416,-0.231541 -0.12472,-0.475346 -0.0641,-0.70219 0.0314,-0.117407 0.10995,-0.32597 -0.0124,-0.34696 -0.0125,-0.0021 0.032,-0.03236 0.0188,-0.03202 z"
       id="path45"
       sodipodi:nodetypes="ccssccccccccccccccccccccc"
       transform="matrix(1.2208748,0,0,1.2208748,-23.797755,-12.849778)" /><path
       style="fill:#ee604f;fill-opacity:1;stroke:none;stroke-width:0.541741;stroke-linecap:round;stroke-dasharray:none;stroke-opacity:1"
       d="m 108.31395,60.402024 c 0.0321,-0.224879 -0.0442,-0.859748 0.0912,-0.675967 0.11397,0.154658 0.27588,0.293682 0.32423,0.48023 0.0449,0.173147 0.19787,0.158306 0.35915,0.165352 0.16538,0.0072 0.33396,0.02777 0.49433,-0.01267 0.11711,-0.02954 0.21786,-0.04575 0.25719,0.110931 0.0952,0.379342 0.14612,0.769629 0.25595,1.145377 0.0318,0.108903 0.0524,0.219801 -0.10926,0.227849 -0.25892,0.01289 -0.51466,0.05144 -0.76986,0.09541 -0.19898,0.03429 -0.40474,0.04242 -0.59682,0.104559 -0.20682,0.06691 -0.40747,0.159628 -0.62388,0.186978 -0.13791,0.01743 -0.12119,-0.231478 -0.12087,-0.32988 9.7e-4,-0.293848 -0.0433,-0.581785 -0.0701,-0.875361 -0.0185,-0.202528 -0.17223,-0.602118 0.0365,-0.61173 0.15088,-0.0069 0.30683,0.0468 0.45496,8.13e-4 z"
       id="path46"
       sodipodi:nodetypes="scscccsccccccccsccssccsccs"
       transform="matrix(1.107543,0,0,1.107543,-12.171503,-6.0238874)" /></g></svg>
