<?xml version="1.0" encoding="UTF-8" standalone="no"?>
<!-- Created with Inkscape (http://www.inkscape.org/) -->

<svg
   width="47.117844mm"
   height="22.918341mm"
   viewBox="0 0 47.117844 22.918341"
   version="1.1"
   id="svg1"
   xml:space="preserve"
   inkscape:version="1.4 (e7c3feb100, 2024-10-09)"
   sodipodi:docname="logo.svg"
   xmlns:inkscape="http://www.inkscape.org/namespaces/inkscape"
   xmlns:sodipodi="http://sodipodi.sourceforge.net/DTD/sodipodi-0.dtd"
   xmlns:xlink="http://www.w3.org/1999/xlink"
   xmlns="http://www.w3.org/2000/svg"
   xmlns:svg="http://www.w3.org/2000/svg"><sodipodi:namedview
     id="namedview1"
     pagecolor="#ffffff"
     bordercolor="#000000"
     borderopacity="0.25"
     inkscape:showpageshadow="2"
     inkscape:pageopacity="0.0"
     inkscape:pagecheckerboard="0"
     inkscape:deskcolor="#d1d1d1"
     inkscape:document-units="mm"
     inkscape:zoom="4.3544893"
     inkscape:cx="76.472802"
     inkscape:cy="44.092426"
     inkscape:window-width="2560"
     inkscape:window-height="1371"
     inkscape:window-x="0"
     inkscape:window-y="0"
     inkscape:window-maximized="1"
     inkscape:current-layer="layer1" /><defs
     id="defs1"><inkscape:path-effect
       effect="simplify"
       id="path-effect47"
       is_visible="true"
       lpeversion="1.3"
       threshold="100"
       steps="1"
       smooth_angles="360"
       helper_size="0"
       simplify_individual_paths="false"
       simplify_just_coalesce="false" /><inkscape:path-effect
       effect="simplify"
       id="path-effect46"
       is_visible="true"
       lpeversion="1.3"
       threshold="100"
       steps="1"
       smooth_angles="360"
       helper_size="0"
       simplify_individual_paths="false"
       simplify_just_coalesce="false" /><inkscape:path-effect
       effect="simplify"
       id="path-effect45"
       is_visible="true"
       lpeversion="1.3"
       threshold="100"
       steps="1"
       smooth_angles="360"
       helper_size="0"
       simplify_individual_paths="false"
       simplify_just_coalesce="false" /><inkscape:path-effect
       effect="simplify"
       id="path-effect43"
       is_visible="true"
       lpeversion="1.3"
       threshold="100"
       steps="1"
       smooth_angles="360"
       helper_size="0"
       simplify_individual_paths="false"
       simplify_just_coalesce="false" /><inkscape:path-effect
       effect="simplify"
       id="path-effect42"
       is_visible="true"
       lpeversion="1.3"
       threshold="100"
       steps="1"
       smooth_angles="360"
       helper_size="0"
       simplify_individual_paths="false"
       simplify_just_coalesce="false" /><inkscape:path-effect
       effect="simplify"
       id="path-effect41"
       is_visible="true"
       lpeversion="1.3"
       threshold="100"
       steps="1"
       smooth_angles="360"
       helper_size="0"
       simplify_individual_paths="false"
       simplify_just_coalesce="false" /><inkscape:path-effect
       effect="simplify"
       id="path-effect40"
       is_visible="true"
       lpeversion="1.3"
       threshold="100"
       steps="1"
       smooth_angles="360"
       helper_size="0"
       simplify_individual_paths="false"
       simplify_just_coalesce="false" /><inkscape:path-effect
       effect="simplify"
       id="path-effect39"
       is_visible="true"
       lpeversion="1.3"
       threshold="100"
       steps="1"
       smooth_angles="360"
       helper_size="0"
       simplify_individual_paths="false"
       simplify_just_coalesce="false" /><inkscape:path-effect
       effect="simplify"
       id="path-effect38"
       is_visible="true"
       lpeversion="1.3"
       threshold="100"
       steps="1"
       smooth_angles="360"
       helper_size="0"
       simplify_individual_paths="false"
       simplify_just_coalesce="false" /><inkscape:path-effect
       effect="simplify"
       id="path-effect37"
       is_visible="true"
       lpeversion="1.3"
       threshold="100"
       steps="1"
       smooth_angles="360"
       helper_size="0"
       simplify_individual_paths="false"
       simplify_just_coalesce="false" /><inkscape:path-effect
       effect="simplify"
       id="path-effect36"
       is_visible="true"
       lpeversion="1.3"
       threshold="100"
       steps="1"
       smooth_angles="360"
       helper_size="0"
       simplify_individual_paths="false"
       simplify_just_coalesce="false" /><inkscape:path-effect
       effect="simplify"
       id="path-effect35"
       is_visible="true"
       lpeversion="1.3"
       threshold="100"
       steps="1"
       smooth_angles="360"
       helper_size="0"
       simplify_individual_paths="false"
       simplify_just_coalesce="false" /><linearGradient
       id="linearGradient27"
       inkscape:collect="always"><stop
         style="stop-color:#e93421;stop-opacity:1;"
         offset="0"
         id="stop25" /><stop
         style="stop-color:#e8c15c;stop-opacity:1;"
         offset="1"
         id="stop27" /></linearGradient><linearGradient
       id="linearGradient24"
       inkscape:collect="always"><stop
         style="stop-color:#76cf6c;stop-opacity:1;"
         offset="0"
         id="stop22" /><stop
         style="stop-color:#e8c15c;stop-opacity:1;"
         offset="1"
         id="stop24" /></linearGradient><rect
       x="143.54897"
       y="198.11055"
       width="530.67645"
       height="176.67564"
       id="rect1" /><rect
       x="143.54897"
       y="198.11055"
       width="530.67645"
       height="176.67564"
       id="rect6" /><rect
       x="143.54897"
       y="198.11055"
       width="530.67645"
       height="176.67564"
       id="rect8" /><linearGradient
       inkscape:collect="always"
       xlink:href="#linearGradient27"
       id="linearGradient9"
       x1="144.2207"
       y1="204.79172"
       x2="197.25893"
       y2="204.79172"
       gradientUnits="userSpaceOnUse" /><linearGradient
       inkscape:collect="always"
       xlink:href="#linearGradient24"
       id="linearGradient12"
       x1="144.2207"
       y1="204.28317"
       x2="197.11119"
       y2="204.16306"
       gradientUnits="userSpaceOnUse" /></defs><g
     inkscape:label="Layer 1"
     inkscape:groupmode="layer"
     id="layer1"
     transform="translate(-103.96292,-56.938644)"><text
       xml:space="preserve"
       transform="matrix(0.71546375,0,0,0.71546375,9.8041377,-85.766579)"
       id="text1"
       style="font-size:10.6667px;line-height:normal;font-family:Serif;-inkscape-font-specification:Serif;text-align:start;text-decoration-color:#000000;writing-mode:lr-tb;direction:ltr;white-space:pre;shape-inside:url(#rect1);display:inline;fill:#ee604f;fill-opacity:1;stroke-width:0.370387"><tspan
         x="143.54883"
         y="207.56255"
         id="tspan4"><tspan
           style="letter-spacing:0.32543px"
           id="tspan3">Multilingual</tspan></tspan></text><text
       xml:space="preserve"
       transform="matrix(0.71546375,0,0,0.71546375,9.8041377,-77.299925)"
       id="text6"
       style="font-size:10.6667px;line-height:normal;font-family:Serif;-inkscape-font-specification:Serif;text-align:start;text-decoration-color:#000000;writing-mode:lr-tb;direction:ltr;white-space:pre;shape-inside:url(#rect6);display:inline;fill:#70c867;fill-opacity:1;stroke-width:0.370387"><tspan
         x="143.54883"
         y="207.56255"
         id="tspan7"><tspan
           style="font-weight:bold;font-stretch:condensed;font-family:'Open Sans Condensed';-inkscape-font-specification:'Open Sans Condensed,  Bold Condensed'"
           id="tspan5">Multicultural</tspan></tspan></text><text
       xml:space="preserve"
       transform="matrix(0.89081011,0,0,0.71546375,-15.45155,-69.362408)"
       id="text8"
       style="font-size:10.6667px;line-height:normal;font-family:Serif;-inkscape-font-specification:Serif;text-align:start;text-decoration-color:#000000;letter-spacing:0px;writing-mode:lr-tb;direction:ltr;white-space:pre;shape-inside:url(#rect8);display:inline;fill:#000000;fill-opacity:1;stroke-width:0.331938"><tspan
         x="143.54883"
         y="207.56255"
         id="tspan10"><tspan
           style="font-stretch:condensed;font-family:'Open Sans Condensed';-inkscape-font-specification:'Open Sans Condensed,  Bold Condensed'"
           id="tspan9">Evaluation</tspan></tspan></text><path
       style="fill:#56a7ad;fill-opacity:1;stroke-width:0.264999"
       d="m 107.51776,65.223498 c -1.40959,-0.124745 -2.45476,0.977065 -3.0049,2.154197 -0.40798,0.872929 -0.63452,1.938379 0.17512,2.910371 0.96172,1.154566 2.55018,2.092639 4.0163,1.462524 1.53682,-0.660496 2.35241,-2.61217 1.96716,-4.179971 -0.3441,-1.400354 -1.68543,-2.481323 -3.15368,-2.347121 z"
       id="path27"
       sodipodi:nodetypes="scccccccs" /><path
       style="fill:#e8c15c;fill-opacity:1;stroke:none;stroke-width:0.0999996;stroke-linecap:round;stroke-dasharray:none;stroke-opacity:1"
       d="m 106.80363,73.185626 c -2.5479,0.356629 -3.74791,4.307301 -1.35431,6.01901 1.44486,1.033242 3.42221,0.781528 4.528,-0.349826 0.58844,-0.602039 0.65519,-1.467265 0.87118,-2.489345 0.83668,-2.467509 -1.49696,-3.536468 -4.04487,-3.179839 z"
       id="path33"
       sodipodi:nodetypes="zcscz" /><path
       style="fill:none;fill-opacity:1;stroke:#000000;stroke-width:3.17795;stroke-linecap:round;stroke-dasharray:none;stroke-opacity:1"
       d="m 43.480757,103.25663 c 2.876757,1.39944 6.386511,2.60146 9.537496,1.57687"
       id="path34"
       inkscape:path-effect="#path-effect35"
       inkscape:original-d="m 43.480757,103.25663 c 3.158797,1.51702 5.073213,2.07089 8.620227,1.91456 0.322593,-0.0555 0.638822,-0.16332 0.917269,-0.33769"
       transform="matrix(0.18796472,0,0,0.18964109,96.854389,55.750359)"
       sodipodi:nodetypes="ccc" /><path
       style="fill:#000000;fill-opacity:1;stroke:none;stroke-width:3.17795;stroke-linecap:round;stroke-dasharray:none;stroke-opacity:1"
       d="m 46.208775,105.08623 c -2.083861,1.24791 -1.08932,3.94948 0.771706,5.32808 2.649264,1.96252 4.780883,-1.40857 4.219086,-4.05492 -0.457288,-2.15406 -3.497179,-2.26836 -4.990792,-1.27316 z"
       id="path35"
       inkscape:path-effect="#path-effect36"
       inkscape:original-d="m 46.208775,105.08623 c -1.680514,0.98506 -1.688686,3.7068 -0.07682,4.76529 1.032658,0.77932 2.517483,1.57486 3.766543,0.80332 1.167633,-0.70728 1.418081,-2.21399 1.421268,-3.47144 -0.01816,-1.09098 -0.60421,-2.30512 -1.76454,-2.53424 -0.938027,-0.21633 -1.955685,-0.16924 -2.872273,0.10936 -0.17579,0.0798 -0.33921,0.18912 -0.474183,0.32771 z"
       transform="matrix(0.18796472,0,0,0.18964109,96.854389,55.76223)" /><path
       style="fill:#56a7ad;fill-opacity:1;stroke:#000000;stroke-width:4.72869;stroke-linecap:round;stroke-dasharray:none;stroke-opacity:1"
       d="M 76.262073,92.073028 C 54.33197,95.814401 69.474396,133.13874 88.343957,114.84555 98.373866,105.122 90.780958,88.486778 76.262073,92.073028 Z"
       id="path38"
       inkscape:path-effect="#path-effect39"
       inkscape:original-d="m 76.262073,92.073028 c -4.851403,-0.206584 -9.105116,3.573151 -9.624308,8.369642 -0.554501,4.4668 -1.331748,9.28513 0.333927,13.59827 1.64481,4.69097 6.95168,5.88695 11.362907,5.27092 4.986562,-0.34284 9.882663,-2.94278 12.181035,-7.52976 3.455323,-5.25736 3.516361,-13.457683 -1.977684,-17.404797 -3.442741,-2.349715 -8.271211,-2.669909 -12.275877,-2.304275 z"
       transform="matrix(0.12688178,0,0,0.12688814,99.828101,62.640054)" /><path
       style="fill:#000000;fill-opacity:1;stroke:none;stroke-width:6.40484;stroke-linecap:round;stroke-dasharray:none;stroke-opacity:1"
       d="m 74.386289,109.49245 c 1.258698,2.55965 5.942469,2.84331 6.80456,-0.11045 0.779434,-2.67056 -1.242054,-6.36918 -4.339113,-5.82008 -2.539454,0.45023 -3.711001,3.82222 -2.465447,5.93053 z"
       id="path36"
       inkscape:path-effect="#path-effect37"
       inkscape:original-d="m 74.386289,109.49245 c 1.281268,2.54199 5.852729,2.8381 6.80456,-0.11045 0.626591,-2.22344 -0.711478,-5.92012 -3.78472,-5.87271 -3.073243,0.0474 -4.29631,3.9461 -3.01984,5.98316 z"
       sodipodi:nodetypes="cccc"
       transform="matrix(0.21858467,0,0,0.21858467,92.690528,52.803441)" /><path
       style="fill:none;fill-opacity:1;stroke:#000000;stroke-width:4.343;stroke-linecap:round;stroke-dasharray:none;stroke-opacity:1"
       d="m 55.369845,120.77048 c 4.392002,1.52356 9.365875,1.85672 13.790968,0.31115"
       id="path37"
       inkscape:path-effect="#path-effect38"
       inkscape:original-d="m 55.369845,120.77048 c 3.205167,0.88445 4.701378,1.4638 7.085769,1.24421 1.967419,-0.0521 4.281227,0.14623 6.705199,-0.93306"
       sodipodi:nodetypes="ccc"
       transform="matrix(0.13815316,0,0,0.13815316,98.932945,61.4498)" /><path
       style="fill:#0089a3;fill-opacity:1;stroke:#000000;stroke-width:4.343;stroke-linecap:round;stroke-dasharray:none;stroke-opacity:1"
       d="m 87.402846,114.45756 c 3.208913,4.11387 6.914547,7.78071 10.518555,11.53942"
       id="path39"
       inkscape:path-effect="#path-effect40"
       inkscape:original-d="m 87.402846,114.45756 c 4.815555,5.9079 5.282659,6.02358 10.518555,11.53942"
       sodipodi:nodetypes="cc"
       transform="matrix(0.13490747,0.02977035,-0.02977035,0.13490747,102.4015,59.483602)" /><path
       style="fill:#7ecd75;fill-opacity:1;stroke:none;stroke-width:0.512778;stroke-linecap:round;stroke-dasharray:none;stroke-opacity:1"
       d="m 108.29297,68.345731 c -0.17346,-0.09242 -0.45003,-0.03718 -0.5196,0.15455 -0.0618,0.170438 0.10995,0.278049 0.24922,0.332253 0.19292,0.07508 0.45448,0.137403 0.5093,0.361908 0.0825,0.337793 0.17024,0.671541 0.28229,1.0063 0.0486,0.145144 0.0576,0.352971 0.20736,0.416458 0.14756,0.06253 0.24993,-0.10642 0.34922,-0.184859 0.18779,-0.148351 0.4251,-0.341665 0.38483,-0.603734 -0.0506,-0.329282 -0.18131,-0.612882 -0.33741,-0.921469 -0.11598,-0.229275 0.0356,-0.598796 -0.20279,-0.729323 -0.14291,-0.07825 -0.29889,-0.146101 -0.45688,-0.194665 -0.1713,-0.05266 -0.3323,0.06114 -0.43132,0.209729 -0.0278,0.04172 -0.0513,0.145322 -0.12047,0.120626"
       id="path40"
       inkscape:path-effect="#path-effect41"
       inkscape:original-d="m 108.29297,68.345731 c -0.24242,-0.13965 -0.69646,0.08491 -0.47043,0.380704 0.23422,0.178328 0.63959,0.162242 0.72317,0.515278 0.0686,0.32547 0.11313,0.65865 0.26847,0.959029 0.059,0.200061 0.16464,0.616382 0.42643,0.340267 0.21716,-0.192716 0.53817,-0.378205 0.51498,-0.712402 -0.0505,-0.32997 -0.35224,-0.574748 -0.33741,-0.921469 -0.11847,-0.237214 -0.0169,-0.564232 -0.22105,-0.74686 -0.22906,-0.08938 -0.54916,-0.312695 -0.76738,-0.103392 -0.0976,0.04005 -0.13422,0.30301 -0.22303,0.256619"
       transform="matrix(1.1700998,0,0,1.1700998,-18.625989,-11.377066)" /><path
       style="fill:#7ecd75;fill-opacity:1;stroke:none;stroke-width:0.600001;stroke-linecap:round;stroke-dasharray:none;stroke-opacity:1"
       d="m 105.04914,66.401586 c 0.20851,0.109945 0.48562,0.213513 0.68505,0.100982 0.2929,-0.165268 0.30769,0.217256 0.49922,0.344288 0.23284,0.154431 0.0963,0.431969 -0.007,0.616115 -0.12107,0.216405 0.1136,0.353108 0.25196,0.467578 0.15963,0.132079 0.29429,0.36116 0.18591,0.554504 -0.12533,0.223579 -0.47662,-0.06147 -0.61972,0.107828 -0.14295,0.169113 -0.6441,0.07266 -0.47095,0.40867 0.0934,0.181146 0.10785,0.380241 0.11968,0.590154 0.0136,0.242334 0.0787,0.474907 0.15984,0.704848 0.0984,0.278935 -0.30321,0.16546 -0.42539,0.08763 -0.21904,-0.139535 -0.35444,-0.375608 -0.43901,-0.627405 -0.068,-0.202463 -0.24881,-0.380599 -0.44962,-0.435919 -0.21117,-0.05817 -0.20567,-0.278033 -0.24309,-0.459187 -0.0811,-0.392512 0.14349,-0.76067 0.18634,-1.1442 0.0237,-0.212417 0.0925,-0.412743 0.15756,-0.61492 0.0699,-0.217141 0.0872,-0.480565 0.25856,-0.636521 0.0415,-0.03777 0.0984,-0.0489 0.15035,-0.06444 z"
       id="path41"
       inkscape:path-effect="#path-effect42"
       inkscape:original-d="m 105.04914,66.401586 c 0.12901,0.07701 0.29256,0.08713 0.44039,0.09667 0.0929,0.006 0.18726,0.01416 0.27927,0 0.0495,-0.0076 0.096,-0.04581 0.15038,-0.03222 0.10168,0.02542 0.10556,0.169645 0.16111,0.236304 0.12272,0.147263 0.32033,0.214573 0.27927,0.440387 -0.0228,0.125515 -0.2469,0.43415 -0.12889,0.558539 0.19612,0.20672 0.52349,0.383259 0.45113,0.708915 -0.007,0.03217 -0.021,0.120944 -0.0537,0.139635 -0.13946,0.07969 -0.42211,-0.02041 -0.51557,0.01074 -0.0923,0.03076 -0.17203,0.12088 -0.29001,0.150376 -0.10264,0.02566 -0.26212,1.51e-4 -0.29002,0.139635 -0.0196,0.09794 0.0583,0.153527 0.0859,0.236305 0.0263,0.07876 -0.0103,0.1844 0.0107,0.268528 0.0201,0.08041 0.0568,0.151805 0.0645,0.236305 0.02,0.220045 0.0353,0.417127 0.1289,0.622986 0.0198,0.04356 0.0779,0.19061 0.0322,0.236305 -0.0502,0.05023 -0.33248,-0.02935 -0.39742,-0.05371 -0.15122,-0.05671 -0.38287,-0.331331 -0.42965,-0.483351 -0.0259,-0.08427 -0.0412,-0.234568 -0.10741,-0.300752 -0.0663,-0.06635 -0.128,-0.132475 -0.20408,-0.193341 -0.12658,-0.101265 -0.28692,-0.109423 -0.37594,-0.257787 -0.0364,-0.06064 -0.0238,-0.158377 -0.0322,-0.225564 -0.0126,-0.100437 -0.0416,-0.197323 -0.0322,-0.300752 0.0216,-0.237451 0.10399,-0.469641 0.16112,-0.698174 0.0415,-0.16585 0.0632,-0.337292 0.0967,-0.504833 0.0176,-0.08805 0.061,-0.17069 0.0859,-0.257787 0.0463,-0.161999 0.16764,-0.597288 0.27927,-0.708915 0.0345,-0.03449 0.10448,-0.05134 0.15037,-0.06445 z"
       transform="translate(0,0.52916667)" /><path
       style="fill:#7ecd75;fill-opacity:1;stroke:none;stroke-width:0.600001;stroke-linecap:round;stroke-dasharray:none;stroke-opacity:1"
       d="m 107.75591,65.832305 c -0.0634,0.290193 -0.36984,0.426889 -0.47969,0.694698 -0.0735,0.179076 -0.29938,0.38731 -0.19701,0.551274 0.10153,0.162607 0.31557,0.174871 0.49104,0.178002 0.34982,0.0062 0.69845,-0.0048 1.04528,-0.08937 0.19921,-0.04856 0.39865,-0.170826 0.60092,-0.135819 0.23468,0.04062 0.38954,0.268585 0.64327,0.271274 0.16757,0.0018 0.35253,0.02351 0.50253,-0.05701 0.10853,-0.05826 0.0424,-0.141463 0.12514,-0.249569 0.14182,-0.185316 -0.0343,-0.355414 -0.11918,-0.515509 -0.08,-0.150966 -0.0644,-0.314233 -0.20407,-0.449083 -0.18019,-0.173945 -0.36834,-0.341935 -0.50608,-0.553675 -0.10815,-0.16626 -0.3211,-0.187282 -0.49424,-0.1755 -0.28519,0.01941 -0.56155,0.121517 -0.79805,0.272443 -0.18789,0.119905 -0.383,0.235232 -0.60986,0.257849 z"
       id="path42"
       inkscape:path-effect="#path-effect43"
       inkscape:original-d="m 107.75591,65.832305 c -0.0507,0.24839 -0.27999,0.367867 -0.40816,0.569281 -0.0819,0.128763 -0.14568,0.275927 -0.19334,0.418904 -0.0258,0.07751 -0.0924,0.171703 -0.0752,0.257787 0.014,0.06981 0.18612,0.14439 0.2363,0.161118 0.0594,0.01979 0.81656,0.03292 0.94522,0.01074 0.26548,-0.04577 0.19604,-0.0429 0.48335,-0.118153 0.0605,-0.01584 0.12152,-0.0296 0.1826,-0.04296 0.0585,-0.0128 0.249,-0.07463 0.32224,-0.05371 0.15671,0.04478 0.27914,0.171804 0.42964,0.236305 0.12408,0.05318 0.52716,0.03728 0.65521,-0.01074 0.0447,-0.01676 0.0577,-0.05179 0.0967,-0.07519 0.0177,-0.01061 0.0533,-0.0099 0.0645,-0.03222 0.0196,-0.03913 -0.0292,-0.142631 0,-0.171858 0.0135,-0.01354 0.0131,-0.02849 0.0215,-0.05371 0.062,-0.186155 0.0115,-0.138134 -0.0752,-0.311493 -0.0414,-0.08288 -0.11045,-0.187057 -0.12889,-0.279269 -0.013,-0.06512 0.0103,-0.115166 -0.0322,-0.171858 -0.14203,-0.189364 -0.34416,-0.328157 -0.4941,-0.515575 -0.0651,-0.08141 -0.15176,-0.23163 -0.24704,-0.279269 -0.059,-0.02948 -0.11542,-0.03625 -0.1826,-0.04296 -0.0851,-0.0085 -0.17042,-0.03604 -0.25779,-0.02148 -0.21055,0.03509 -0.39597,0.136908 -0.59076,0.214823 -0.0537,0.02146 -0.11139,0.03337 -0.16112,0.06445 -0.21666,0.135412 -0.33713,0.210814 -0.59076,0.247046 z"
       transform="translate(0,0.52916667)" /><path
       style="fill:#56a7ad;fill-opacity:1;stroke-width:0.264999"
       d="m 110.6926,60.425938 c 0.12474,1.40959 -0.97707,2.45476 -2.1542,3.0049 -0.87293,0.40798 -1.93838,0.63452 -2.91037,-0.17512 -1.15456,-0.96172 -2.09264,-2.55018 -1.46252,-4.0163 0.66049,-1.53682 2.61217,-2.35241 4.17997,-1.96716 1.40035,0.3441 2.48132,1.68543 2.34712,3.15368 z"
       id="path43"
       sodipodi:nodetypes="scccccccs" /><path
       style="fill:#ee604f;fill-opacity:1;stroke:none;stroke-width:0.537132;stroke-linecap:round;stroke-dasharray:none;stroke-opacity:1"
       d="m 105.05988,60.075056 c -0.11562,0.08144 -0.12282,0.234888 -0.13853,0.361552 -0.0347,0.279978 -0.0707,0.567109 -0.0241,0.847328 0.0297,0.17831 0.28276,0.094 0.37104,0.204912 0.0803,0.100944 0.0462,0.250004 0.0605,0.371966 0.009,0.07258 0.01,0.303465 0.0331,0.251145 0.0951,-0.211235 0.18453,-0.452604 0.39623,-0.576104 0.12703,-0.0741 0.27557,-0.08434 0.41804,-0.06069 0.17712,0.0294 0.3615,-0.05934 0.53131,0.01652 0.16294,0.07279 0.23561,-0.113272 0.26245,-0.24281 0.0484,-0.233683 0.13875,-0.467992 0.11179,-0.706786 -0.0134,-0.119004 0.0834,-0.369078 -0.0401,-0.37907 -0.35113,-0.0284 -0.70411,-0.01563 -1.05614,-0.01264 -0.25725,0.0022 -0.5123,-0.02675 -0.76846,-0.04537 -0.0533,-0.0039 -0.10636,-0.01292 -0.15708,-0.02994 z"
       id="path44"
       inkscape:path-effect="#path-effect45"
       inkscape:original-d="m 105.05988,60.075056 c -0.0215,0.02148 -0.0476,0.03917 -0.0644,0.06445 -0.0889,0.133389 -0.17909,1.109844 -0.0645,1.22449 0.0817,0.08173 0.26883,0.054 0.35446,0.139634 0.052,0.05201 0.043,0.435239 0.043,0.537057 0,0.004 0.0149,0.08593 0.0215,0.08593 0.0104,0 0.0477,-0.0923 0.0537,-0.107411 0.0675,-0.168649 0.1875,-0.399874 0.35446,-0.483351 0.0561,-0.02807 0.11347,-0.04985 0.17186,-0.06445 0.0892,-0.0223 0.25508,0.01074 0.35445,0.01074 0.10403,0 0.23865,-0.03701 0.34372,-0.01074 0.0466,0.01165 0.17804,0.05317 0.22556,0.02148 0.0796,-0.05308 0.12367,-0.266624 0.13964,-0.354457 0.0239,-0.131219 0.0629,-0.262395 0.0752,-0.397422 0.006,-0.06672 0.0399,-0.529385 0,-0.56928 -0.0271,-0.02714 -0.44392,-0.02148 -0.50484,-0.02148 -0.36264,0 -0.72723,0.01248 -1.08485,-0.03222 -0.14905,-0.01863 -0.27376,0.0054 -0.41891,-0.04297 z"
       transform="matrix(1.0288893,0,0,1.212752,-3.337062,-12.829927)" /><path
       style="fill:#ee604f;fill-opacity:1;stroke:none;stroke-width:0.491452;stroke-linecap:round;stroke-dasharray:none;stroke-opacity:1"
       d="m 106.07339,57.933606 c 0.24337,0.07988 0.50092,0.04523 0.75192,0.04557 0.32369,4.42e-4 0.64923,0.0434 0.97105,0.0095 0.10595,-0.01116 0.25122,-0.06911 0.30984,0.06781 0.11918,0.278363 0.0616,0.596563 0.15461,0.879675 0.0416,0.126571 0.24086,0.05527 0.34595,0.0946 0.0829,0.03104 0.32112,0.05264 0.28118,0.09935 -0.10373,0.1213 -0.26975,0.08772 -0.39679,0.171767 -0.11795,0.07804 -0.22186,0.192298 -0.37632,0.197427 -0.25211,0.0084 -0.5031,-0.02622 -0.75462,-0.04028 -0.25153,-0.01407 -0.50533,0.01646 -0.75495,-0.02833 -0.12631,-0.02267 -0.27779,0.06885 -0.37999,-0.01604 -0.11678,-0.09699 -0.0705,-0.267846 -0.0942,-0.399883 -0.0416,-0.231541 -0.12472,-0.475346 -0.0641,-0.70219 0.0314,-0.117407 0.10995,-0.32597 -0.0124,-0.34696 -0.0125,-0.0021 0.032,-0.03236 0.0188,-0.03202 z"
       id="path45"
       inkscape:path-effect="#path-effect46"
       inkscape:original-d="m 106.07339,57.933606 c 0.0713,0.01373 0.13956,0.0407 0.21266,0.04557 0.17787,0.01186 0.36097,0 0.53926,0 0.2028,0 0.40478,0.0076 0.60761,0.0076 0.12775,0 0.26014,0.01156 0.38735,0 0.0548,-0.005 0.17818,-0.04485 0.22785,-0.0076 0.14238,0.106785 0.15974,0.624686 0.18229,0.805084 0.006,0.04957 0.0206,0.102751 0.0304,0.151902 1.3e-4,6.8e-4 -0.002,0.02824 0,0.03038 0.0676,0.0676 0.22259,0.04343 0.32659,0.06076 0.10522,0.01754 0.17724,0.05001 0.28102,0.07595 0.0174,0.0044 0.0209,-0.0019 0.0304,0.0076 0.0131,0.01313 -0.10401,0.08742 -0.11393,0.09114 -0.0661,0.02478 -0.13771,0.0272 -0.20507,0.04557 -0.36,0.20354 -0.20124,0.297326 -0.85071,0.235454 -0.24633,-0.0176 -0.49182,-0.02867 -0.73673,-0.05317 -0.12057,-0.01206 -0.24405,-0.008 -0.36456,0 -0.0598,0.004 -0.12279,-0.0074 -0.18229,0 -0.0674,0.0084 -0.15804,0.02214 -0.22026,-0.01519 -0.10416,-0.0625 -0.0762,-0.28259 -0.0911,-0.379757 -0.0165,-0.107138 -0.0378,-0.217585 -0.0456,-0.326591 -0.008,-0.106411 -0.0146,-0.212893 -0.0228,-0.318995 -0.005,-0.06567 0.0129,-0.140541 0,-0.205069 -0.0189,-0.09475 -0.0549,-0.163097 0.008,-0.250639 z"
       sodipodi:nodetypes="ccssccccccccccccccccccccc"
       transform="matrix(1.2208748,0,0,1.2208748,-23.797755,-12.849778)" /><path
       style="fill:#ee604f;fill-opacity:1;stroke:none;stroke-width:0.541741;stroke-linecap:round;stroke-dasharray:none;stroke-opacity:1"
       d="m 108.31395,60.402024 c 0.0321,-0.224879 -0.0442,-0.859748 0.0912,-0.675967 0.11397,0.154658 0.27588,0.293682 0.32423,0.48023 0.0449,0.173147 0.19787,0.158306 0.35915,0.165352 0.16538,0.0072 0.33396,0.02777 0.49433,-0.01267 0.11711,-0.02954 0.21786,-0.04575 0.25719,0.110931 0.0952,0.379342 0.14612,0.769629 0.25595,1.145377 0.0318,0.108903 0.0524,0.219801 -0.10926,0.227849 -0.25892,0.01289 -0.51466,0.05144 -0.76986,0.09541 -0.19898,0.03429 -0.40474,0.04242 -0.59682,0.104559 -0.20682,0.06691 -0.40747,0.159628 -0.62388,0.186978 -0.13791,0.01743 -0.12119,-0.231478 -0.12087,-0.32988 9.7e-4,-0.293848 -0.0433,-0.581785 -0.0701,-0.875361 -0.0185,-0.202528 -0.17223,-0.602118 0.0365,-0.61173 0.15088,-0.0069 0.30683,0.0468 0.45496,8.13e-4 z"
       id="path46"
       inkscape:path-effect="#path-effect47"
       inkscape:original-d="m 108.31395,60.402024 c 0.009,-0.009 0.0376,-0.439182 0.0608,-0.531659 0.003,-0.01259 0.0231,-0.144308 0.0304,-0.144308 0.0108,0 0.0549,0.07471 0.0608,0.08355 0.078,0.117056 0.15408,0.235466 0.23545,0.349376 0.0283,0.03967 0.0989,0.193744 0.13671,0.212663 0.0493,0.02465 0.16806,0 0.22785,0 0.12053,0 0.23817,-3.44e-4 0.35697,-0.01519 0.0595,-0.0074 0.1232,0.0098 0.18229,0 0.0142,-0.0024 0.17124,-0.02795 0.17468,-0.02279 0.0774,0.116048 0.10649,0.347412 0.14431,0.486089 0.0444,0.162921 0.0807,0.327645 0.11393,0.493683 0.009,0.04434 0.0965,0.480754 0.0836,0.493684 -0.0402,0.04016 -0.27767,0.04604 -0.34179,0.05317 -0.11746,0.01305 -0.23218,0.04014 -0.34937,0.05317 -0.14295,0.01588 -0.28513,0.03072 -0.42533,0.06076 -0.13492,0.02891 -0.27772,0.03623 -0.41014,0.07595 -0.1407,0.04221 -0.28677,0.07929 -0.42532,0.113927 -0.0537,0.01342 -0.17337,0.07595 -0.22026,0.07595 -0.0385,0 -0.0759,-0.333076 -0.0759,-0.364566 0,-0.223649 -0.0513,-0.438779 -0.0684,-0.660776 -0.005,-0.06282 0.006,-0.127209 0,-0.189879 -0.0117,-0.116935 -0.0228,-0.231017 -0.0228,-0.349376 0,-0.06302 0.02,-0.12781 0.0304,-0.189878 0.004,-0.0237 0.0171,-0.0457 0.0228,-0.06836 0.009,-0.02881 0.4053,0.05783 0.47832,-0.01519 z"
       sodipodi:nodetypes="scscccsccccccccsccssccsccs"
       transform="matrix(1.107543,0,0,1.107543,-12.171503,-6.0238874)" /></g></svg>
